<?xml version="1.0" encoding="utf-8"?>
<!-- Generator: Adobe Illustrator 26.3.1, SVG Export Plug-In . SVG Version: 6.00 Build 0)  -->
<svg version="1.1" id="Layer_2_00000036220625637088273610000006315287854041329293_"
	 xmlns="http://www.w3.org/2000/svg" xmlns:xlink="http://www.w3.org/1999/xlink" x="0px" y="0px" viewBox="0 0 30.3 28.7"
	 style="enable-background:new 0 0 30.3 28.7;" xml:space="preserve">
<path d="M27,16.7L27,16.7L27,16.7l-7.8-4.3c-0.9,0.5-1.9,0.8-2.9,0.9l5.9,3.3h-0.1c-3,1.3-4.4,4.8-3.1,7.8c0.7-0.3,1.3-0.8,1.9-1.3
	c-0.1-0.3-0.2-0.7-0.2-1.1c0-2.1,1.7-3.7,3.7-3.7s3.7,1.7,3.7,3.7c0,1.9-1.4,3.5-3.3,3.7c-0.7,0.7-1.5,1.4-2.3,1.9
	c0.6,0.2,1.2,0.3,1.9,0.3l0,0c3.3-0.1,5.9-2.9,5.8-6.2C30.1,19.7,28.9,17.8,27,16.7L27,16.7z"/>
<path d="M17,22c0-0.9,0.2-1.9,0.6-2.8l-5.8,3.5v-0.1c0-0.2,0-0.5,0-0.7c0-3-2.2-5.6-5.2-5.9c0,0.1,0,0.3,0,0.5c0,0.6,0,1.2,0.2,1.8
	c2,0.4,3.3,2.4,2.9,4.4c-0.2,0.9-0.7,1.7-1.5,2.2l-0.6,0.3c-0.5,0.3-1.1,0.4-1.6,0.4c-2.1,0-3.7-1.7-3.7-3.7c0-0.5,0.1-1,0.2-1.4
	c-0.3-1-0.5-2-0.5-3c-2.4,2.3-2.5,6.1-0.3,8.5c1.1,1.2,2.7,1.9,4.3,1.9l0,0c0.9,0,1.9-0.2,2.7-0.7c0.2-0.1,0.4-0.2,0.6-0.4l7.7-4.6
	V22z"/>
<path d="M11.8,17.6v-7l0.1,0.1c1,0.8,2.3,1.2,3.6,1.3h0.1c1.8,0,3.5-0.8,4.7-2.3c-0.6-0.4-1.3-0.8-2-1.1c-0.7,0.7-1.7,1.1-2.7,1.1
	h-0.1c-2,0-3.7-1.7-3.7-3.7V5.8c0.1-2,1.7-3.6,3.7-3.6h0.1c1.2,0,2.3,0.6,3,1.6c1,0.3,1.9,0.6,2.8,1.1C20.9,2.1,18.5,0,15.6,0h-0.1
	c-3.2,0-5.8,2.4-6,5.6v0.1l0,0v0.2l0,0c0,0,0,0,0,0.1v9.6C10.4,16.1,11.2,16.8,11.8,17.6z"/>
<path d="M5.8,24.2L5.8,24.2c0.8,0,1.5-0.4,1.9-1c-3.5-3.9-3.3-9.8,0.4-13.5V6.8C7.6,7.2,7.1,7.6,6.7,8C2.3,12.3,1.8,19.3,5.8,24.2
	L5.8,24.2z"/>
<path d="M13.7,4.7c-0.3,0.4-0.4,0.8-0.4,1.3c0,0.3,0.1,0.7,0.2,1c0.6-0.1,1.2-0.2,1.8-0.1c4.3,0.1,8.1,2.9,9.3,7.1l2.5,1.4
	c-0.7-6-5.7-10.6-11.8-10.7C14.8,4.6,14.2,4.6,13.7,4.7z"/>
<path d="M26.3,21.1c-0.4-0.7-1.1-1.2-1.9-1.2c-0.5,1.4-1.3,2.8-2.4,3.8c-1.8,1.8-4.3,2.8-6.9,2.8h-0.2c-0.7,0-1.3-0.1-2-0.2
	l-2.5,1.5c1.4,0.6,2.9,0.9,4.4,0.9H15c3.2,0,6.2-1.2,8.4-3.5C24.8,24.1,25.7,22.6,26.3,21.1z"/>
</svg>
